<?xml version="1.0" encoding="utf-8"?>
<!-- Generator: Adobe Illustrator 16.0.0, SVG Export Plug-In . SVG Version: 6.00 Build 0)  -->
<!DOCTYPE svg PUBLIC "-//W3C//DTD SVG 1.1//EN" "http://www.w3.org/Graphics/SVG/1.1/DTD/svg11.dtd">
<svg version="1.1" id="Layer_1" xmlns="http://www.w3.org/2000/svg" xmlns:xlink="http://www.w3.org/1999/xlink" x="0px" y="0px"
	 width="195px" height="137.616px" viewBox="0 0 195 137.616" enable-background="new 0 0 195 137.616" xml:space="preserve">
<path d="M131.136,2.965l60.985,61.159c2.629,2.63,2.629,7.019,0,9.654l-60.985,61.162c-2.723,2.729-7.004,2.729-9.727,0
	c-2.628-2.63-2.628-7.024,0-9.754l49.313-49.362H8.001c-3.793,0-6.906-3.119-6.906-6.924c0-3.804,3.113-6.829,6.906-6.829h162.721
	L121.41,12.617c-2.628-2.63-2.628-7.016,0-9.652C124.132,0.238,128.414,0.238,131.136,2.965L131.136,2.965z"/>
</svg>
