<?xml version="1.0" encoding="utf-8"?>
<!-- Generator: Adobe Illustrator 16.0.0, SVG Export Plug-In . SVG Version: 6.00 Build 0)  -->
<!DOCTYPE svg PUBLIC "-//W3C//DTD SVG 1.1//EN" "http://www.w3.org/Graphics/SVG/1.1/DTD/svg11.dtd">
<svg version="1.1" id="Layer_1" xmlns="http://www.w3.org/2000/svg" xmlns:xlink="http://www.w3.org/1999/xlink" x="0px" y="0px"
	 width="410.657px" height="512px" viewBox="0 0 410.657 512" enable-background="new 0 0 410.657 512" xml:space="preserve">
<path d="M362.155,296.349l-46.266-23.319c2.297-3.933,4.479-8.024,6.517-12.299c14.303-30.005,22.788-65.705,23.894-100.52
	c1.257-39.56-7.082-74.735-24.115-101.723C305.345,31.805,271.403,0,205.329,0S105.313,31.805,88.474,58.487
	C71.441,85.475,63.102,120.65,64.359,160.21c1.105,34.815,9.591,70.513,23.894,100.521c2.038,4.274,4.217,8.366,6.516,12.299
	l-46.266,23.32C18.586,311.431,0,341.613,0,375.117V512h410.657V375.116C410.658,341.612,392.072,311.43,362.155,296.349
	 M116.711,76.309c17.973-28.478,47.788-42.918,88.618-42.918s70.645,14.44,88.618,42.918c5.103,8.086,9.21,17.229,12.291,27.252
	c-79.132,3.319-126.926-23.3-127.377-23.555l-10.47-6.068L159.367,82c-23.57,21.059-44.56,31.623-58.728,36.881
	C103.713,102.728,109.111,88.35,116.711,76.309 M114.881,149.247c19.75-7.699,39.264-19.443,58.138-34.973
	c18.593,8.249,60.089,22.991,119.237,22.989c6.49,0,13.222-0.2,20.135-0.583c0.59,7.233,0.78,14.73,0.534,22.471
	c-0.141,4.447-0.444,8.938-0.873,13.443c-4.079,22.584-13.321,40.651-26.772,52.265c-10.789,9.316-24.155,14.446-37.637,14.446
	h-29.49v33.391h29.491c11.202,0,22.296-2.196,32.742-6.341c-17.942,24.31-43.098,36.613-75.057,36.613
	c-39.78,0-69.03-19.045-86.934-56.608c-12.182-25.558-19.713-57.345-20.661-87.211c-0.047-1.456-0.059-2.893-0.076-4.331
	C102.356,153.628,108.167,151.865,114.881,149.247 M218.033,335.816l-4.861,31.572h-15.687l-4.861-31.572
	c4.158,0.353,8.39,0.544,12.704,0.544C209.643,336.361,213.874,336.169,218.033,335.816 M149.005,478.609H33.392V375.116
	c0-20.821,11.549-39.578,30.142-48.949l51.688-26.054c6.748,6.9,14.131,12.873,22.137,17.863
	c6.412,3.996,13.184,7.334,20.281,10.033l8.597,55.847L149.005,478.609z M182.944,478.609l14.153-77.828h16.464l14.152,77.828
	H182.944z M377.266,478.609H261.653l-17.231-94.753l8.596-55.847c7.098-2.699,13.869-6.037,20.281-10.033
	c8.007-4.989,15.389-10.963,22.137-17.863l51.688,26.054c18.592,9.372,30.142,28.128,30.142,48.949V478.609z M159.516,165.666
	c10.05,0,18.198,8.148,18.198,18.198c0,10.05-8.148,18.198-18.198,18.198c-10.05,0-18.198-8.148-18.198-18.198
	C141.318,173.814,149.466,165.666,159.516,165.666 M246.389,165.666c10.051,0,18.198,8.148,18.198,18.198
	c0,10.05-8.147,18.198-18.198,18.198c-10.05,0-18.197-8.148-18.197-18.198C228.191,173.814,236.339,165.666,246.389,165.666"/>
</svg>
