<?xml version="1.0" encoding="utf-8"?>
<!-- Generator: Adobe Illustrator 16.0.0, SVG Export Plug-In . SVG Version: 6.00 Build 0)  -->
<!DOCTYPE svg PUBLIC "-//W3C//DTD SVG 1.1//EN" "http://www.w3.org/Graphics/SVG/1.1/DTD/svg11.dtd">
<svg version="1.1" id="Layer_1" xmlns="http://www.w3.org/2000/svg" xmlns:xlink="http://www.w3.org/1999/xlink" x="0px" y="0px"
	 width="278.419px" height="261.019px" viewBox="0 0 278.419 261.019" enable-background="new 0 0 278.419 261.019"
	 xml:space="preserve">
<path d="M234.916,17.402h-34.802V8.701c0-5.22-3.48-8.701-8.701-8.701s-8.701,3.48-8.701,8.701v8.701H95.707V8.701
	c0-5.22-3.48-8.701-8.701-8.701c-5.22,0-8.701,3.48-8.701,8.701v8.701H43.503C19.141,17.402,0,36.543,0,60.905v156.611
	c0,24.362,19.141,43.503,43.503,43.503h191.413c24.362,0,43.503-19.141,43.503-43.503V60.905
	C278.419,36.543,259.278,17.402,234.916,17.402z M17.401,60.905c0-13.921,12.181-26.102,26.102-26.102h34.802v8.701
	c0,5.22,3.48,8.701,8.701,8.701c5.22,0,8.701-3.48,8.701-8.701v-8.701h87.006v8.701c0,5.22,3.48,8.701,8.701,8.701
	s8.701-3.48,8.701-8.701v-8.701h34.802c13.921,0,26.102,12.181,26.102,26.102v26.102H17.401V60.905z M261.018,217.516
	c0,13.921-12.181,26.102-26.102,26.102H43.503c-13.921,0-26.102-12.181-26.102-26.102V104.408h243.617V217.516z M60.904,217.516
	c-5.22,0-8.701-1.74-12.181-5.22c-3.48-3.48-5.22-8.701-5.22-12.182c0-5.221,1.74-8.701,5.22-12.181
	c6.961-6.96,17.402-6.96,24.362,0c3.48,3.479,5.22,8.701,5.22,12.181c0,3.48-1.74,8.701-5.22,12.182
	C69.605,215.776,66.124,217.516,60.904,217.516 M60.904,165.312c-5.22,0-8.701-1.74-12.181-5.22c-3.48-3.48-5.22-6.96-5.22-12.182
	c0-5.221,1.74-8.7,5.22-12.181c6.961-6.96,17.402-6.96,24.362,0c3.48,3.48,5.22,8.701,5.22,12.181c0,3.48-1.74,8.701-5.22,12.182
	C69.605,163.572,66.124,165.312,60.904,165.312 M113.108,217.516c-5.22,0-8.701-1.74-12.181-5.22c-3.48-3.48-5.22-8.701-5.22-12.182
	c0-3.479,1.74-8.701,5.22-12.181c6.961-6.96,17.402-6.96,24.362,0c3.48,3.479,5.22,8.701,5.22,12.181c0,3.48-1.74,8.701-5.22,12.182
	C121.809,215.776,118.328,217.516,113.108,217.516 M113.108,165.312c-5.22,0-8.701-1.74-12.181-5.22
	c-3.48-3.48-5.22-8.701-5.22-12.182c0-3.479,1.74-8.7,5.22-12.181c6.961-6.96,17.402-6.96,24.362,0
	c3.48,3.48,5.22,8.701,5.22,12.181c0,3.48-1.74,8.701-5.22,12.182C121.809,163.572,118.328,165.312,113.108,165.312
	 M165.311,217.516c-5.22,0-8.7-1.74-12.181-5.22c-3.479-3.48-5.22-8.701-5.22-12.182c0-3.479,1.74-8.701,5.22-12.181
	c6.961-6.96,17.402-6.96,24.362,0c3.479,3.479,5.22,6.96,5.22,12.181c0,5.222-1.74,8.701-5.22,12.182
	C174.012,215.776,170.531,217.516,165.311,217.516 M165.311,165.312c-5.22,0-8.7-1.74-12.181-5.22
	c-3.479-3.48-5.22-8.701-5.22-12.182c0-3.479,1.74-8.7,5.22-12.181c6.961-6.96,17.402-6.96,24.362,0
	c3.479,3.48,5.22,8.701,5.22,12.181c0,5.222-1.74,8.701-5.22,12.182C174.012,163.572,170.531,165.312,165.311,165.312
	 M217.515,217.516c-5.22,0-8.7-1.74-12.181-5.22c-3.48-3.48-5.22-8.701-5.22-12.182c0-5.221,1.739-8.701,5.22-12.181
	c6.961-6.96,17.402-6.96,24.362,0c3.479,3.479,5.22,8.701,5.22,12.181c0,3.48-1.74,8.701-5.22,12.182
	C226.216,215.776,222.735,217.516,217.515,217.516 M217.515,165.312c-5.22,0-8.7-1.74-12.181-5.22
	c-3.48-3.48-5.22-8.701-5.22-12.182c0-3.479,1.739-8.7,5.22-12.181c6.961-6.96,17.402-6.96,24.362,0
	c3.479,3.48,5.22,8.701,5.22,12.181c0,5.222-1.74,8.701-5.22,12.182C226.216,163.572,222.735,165.312,217.515,165.312"/>
</svg>
