<?xml version="1.0" encoding="utf-8"?>
<!-- Generator: Adobe Illustrator 16.0.0, SVG Export Plug-In . SVG Version: 6.00 Build 0)  -->
<!DOCTYPE svg PUBLIC "-//W3C//DTD SVG 1.1//EN" "http://www.w3.org/Graphics/SVG/1.1/DTD/svg11.dtd">
<svg version="1.1" id="Layer_1" xmlns="http://www.w3.org/2000/svg" xmlns:xlink="http://www.w3.org/1999/xlink" x="0px" y="0px"
	 width="32.5px" height="36.447px" viewBox="0 0 32.5 36.447" enable-background="new 0 0 32.5 36.447" xml:space="preserve">
<path d="M28.25,3.948h-1.098V2.75c0-1.517-1.197-2.75-2.67-2.75c-1.475,0-2.671,1.233-2.671,2.75v1.197h-2.739V2.75
	c0-1.517-1.197-2.75-2.67-2.75c-1.473,0-2.67,1.233-2.67,2.75v1.197h-2.74V2.75c0-1.517-1.197-2.75-2.67-2.75
	c-1.473,0-2.67,1.233-2.67,2.75v1.197H4.25C1.907,3.947,0,5.854,0,8.197v24c0,2.343,1.907,4.25,4.25,4.25h24
	c2.344,0,4.25-1.907,4.25-4.25v-24C32.5,5.855,30.593,3.948,28.25,3.948 M23.312,2.75c0-0.689,0.525-1.25,1.171-1.25
	s1.17,0.561,1.17,1.25v4.896c0,0.689-0.524,1.25-1.17,1.25s-1.171-0.561-1.171-1.25V2.75z M15.232,2.75
	c0-0.689,0.525-1.25,1.17-1.25c0.645,0,1.17,0.561,1.17,1.25v4.896c0,0.689-0.525,1.25-1.17,1.25c-0.646,0-1.17-0.561-1.17-1.25
	V2.75z M7.151,2.75c0-0.689,0.525-1.25,1.17-1.25s1.17,0.561,1.17,1.25v4.896c0,0.689-0.525,1.25-1.17,1.25s-1.17-0.561-1.17-1.25
	V2.75z M30,32.198c0,0.965-0.785,1.75-1.75,1.75h-24c-0.965,0-1.75-0.785-1.75-1.75v-22H30V32.198z M4.75,14.626h4.595v4.088H4.75
	V14.626z M10.883,14.626h4.596v4.088h-4.596V14.626z M17.021,14.626h4.595v4.088h-4.595V14.626z M23.154,14.626h4.596v4.088h-4.596
	V14.626z M4.75,20.083h4.595v4.086H4.75V20.083z M10.883,20.083h4.596v4.086h-4.596V20.083z M17.021,20.083h4.595v4.086h-4.595
	V20.083z M23.154,20.083h4.596v4.086h-4.596V20.083z M4.75,25.54h4.595v4.086H4.75V25.54z M10.883,25.54h4.596v4.086h-4.596V25.54z
	 M17.021,25.54h4.595v4.086h-4.595V25.54z M23.154,25.54h4.596v4.086h-4.596V25.54z"/>
</svg>
