<?xml version="1.0" encoding="utf-8"?>
<!-- Generator: Adobe Illustrator 16.0.0, SVG Export Plug-In . SVG Version: 6.00 Build 0)  -->
<!DOCTYPE svg PUBLIC "-//W3C//DTD SVG 1.1//EN" "http://www.w3.org/Graphics/SVG/1.1/DTD/svg11.dtd">
<svg version="1.1" id="Layer_1" xmlns="http://www.w3.org/2000/svg" xmlns:xlink="http://www.w3.org/1999/xlink" x="0px" y="0px"
	 width="329.954px" height="276.922px" viewBox="0 0 329.954 276.922" enable-background="new 0 0 329.954 276.922"
	 xml:space="preserve">
<path d="M4.393,177.065c-5.857-5.857-5.857-15.354,0-21.213l42.427-42.427c2.813-2.813,6.628-4.394,10.606-4.394
	s7.794,1.581,10.607,4.394l42.428,42.428L261.92,4.393c5.857-5.858,15.355-5.857,21.213,0l42.427,42.426
	c2.814,2.813,4.395,6.628,4.395,10.607c0,3.978-1.58,7.793-4.395,10.606L121.063,272.529c-2.812,2.812-6.627,4.393-10.606,4.393
	c-3.978,0-7.794-1.58-10.607-4.393L4.393,177.065z"/>
</svg>
