<?xml version="1.0" encoding="utf-8"?>
<!-- Generator: Adobe Illustrator 16.0.0, SVG Export Plug-In . SVG Version: 6.00 Build 0)  -->
<!DOCTYPE svg PUBLIC "-//W3C//DTD SVG 1.1//EN" "http://www.w3.org/Graphics/SVG/1.1/DTD/svg11.dtd">
<svg version="1.1" id="Layer_1" xmlns="http://www.w3.org/2000/svg" xmlns:xlink="http://www.w3.org/1999/xlink" x="0px" y="0px"
	 width="16px" height="16px" viewBox="0 0 16 16" enable-background="new 0 0 16 16" xml:space="preserve">
<path d="M8,0C3.589,0,0,3.589,0,8s3.589,8,8,8s8-3.589,8-8S12.411,0,8,0 M8,14c-3.309,0-6-2.691-6-6c0-3.309,2.691-6,6-6
	c3.309,0,6,2.691,6,6C14,11.309,11.309,14,8,14 M12.712,5.702l-4.993,5.062c-0.188,0.191-0.458,0.313-0.712,0.298
	c-0.265,0-0.519-0.104-0.707-0.293l-3-3l1.414-1.414l2.288,2.289l4.286-4.346L12.712,5.702z"/>
</svg>
