<?xml version="1.0" encoding="utf-8"?>
<!-- Generator: Adobe Illustrator 16.0.0, SVG Export Plug-In . SVG Version: 6.00 Build 0)  -->
<!DOCTYPE svg PUBLIC "-//W3C//DTD SVG 1.1//EN" "http://www.w3.org/Graphics/SVG/1.1/DTD/svg11.dtd">
<svg version="1.1" id="Layer_1" xmlns="http://www.w3.org/2000/svg" xmlns:xlink="http://www.w3.org/1999/xlink" x="0px" y="0px"
	 width="212.982px" height="212.982px" viewBox="0 0 212.982 212.982" enable-background="new 0 0 212.982 212.982"
	 xml:space="preserve">
<path d="M207.74,182.427c6.989,6.99,6.989,18.322,0,25.313c-6.99,6.989-18.323,6.989-25.313,0l-75.937-75.938L30.554,207.74
	c-6.99,6.989-18.322,6.989-25.312,0c-6.989-6.989-6.989-18.322,0-25.313l75.937-75.937L5.242,30.554
	c-6.989-6.989-6.989-18.322,0-25.312c6.99-6.99,18.322-6.99,25.312,0l75.938,75.938l75.937-75.937c6.99-6.99,18.322-6.99,25.313,0
	c6.989,6.989,6.989,18.322,0,25.312l-75.937,75.936L207.74,182.427z"/>
</svg>
