<?xml version="1.0" encoding="utf-8"?>
<!-- Generator: Adobe Illustrator 16.0.0, SVG Export Plug-In . SVG Version: 6.00 Build 0)  -->
<!DOCTYPE svg PUBLIC "-//W3C//DTD SVG 1.1//EN" "http://www.w3.org/Graphics/SVG/1.1/DTD/svg11.dtd">
<svg version="1.1" id="Layer_1" xmlns="http://www.w3.org/2000/svg" xmlns:xlink="http://www.w3.org/1999/xlink" x="0px" y="0px"
	 width="235.559px" height="235.56px" viewBox="0 0 235.559 235.56" enable-background="new 0 0 235.559 235.56"
	 xml:space="preserve">
<path d="M192.791,235.56c-1.385,0-2.74-0.562-3.719-1.541l-71.293-71.292l-71.292,71.292c-0.979,0.979-2.335,1.541-3.719,1.541
	c-1.385,0-2.741-0.562-3.719-1.54L1.541,196.512C0.547,195.518,0,194.198,0,192.793c0-1.405,0.547-2.726,1.541-3.72l71.292-71.293
	L1.541,46.486C0.547,45.492,0,44.172,0,42.767c0-1.405,0.547-2.725,1.541-3.718L39.047,1.542c0.994-0.994,2.315-1.541,3.72-1.541
	c1.405,0,2.726,0.547,3.719,1.54l71.294,71.292l71.293-71.291C190.067,0.547,191.388,0,192.793,0s2.726,0.547,3.719,1.54
	l37.506,37.508c0.994,0.993,1.541,2.314,1.541,3.72c0,1.405-0.547,2.726-1.54,3.719l-71.292,71.294l71.291,71.292
	c2.052,2.051,2.052,5.388,0,7.438l-37.507,37.507C195.518,235.012,194.196,235.56,192.791,235.56"/>
</svg>
