<?xml version="1.0" encoding="utf-8"?>
<!-- Generator: Adobe Illustrator 16.0.0, SVG Export Plug-In . SVG Version: 6.00 Build 0)  -->
<!DOCTYPE svg PUBLIC "-//W3C//DTD SVG 1.1//EN" "http://www.w3.org/Graphics/SVG/1.1/DTD/svg11.dtd">
<svg version="1.1" id="Layer_1" xmlns="http://www.w3.org/2000/svg" xmlns:xlink="http://www.w3.org/1999/xlink" x="0px" y="0px"
	 width="174.24px" height="174.24px" viewBox="0 0 174.24 174.24" enable-background="new 0 0 174.24 174.24" xml:space="preserve">
<path d="M87.12,0C39.082,0,0,39.082,0,87.12s39.082,87.12,87.12,87.12s87.12-39.082,87.12-87.12S135.157,0,87.12,0 M87.12,159.306
	c-39.802,0-72.185-32.384-72.185-72.186S47.318,14.935,87.12,14.935c39.802,0,72.185,32.383,72.185,72.185
	S126.921,159.306,87.12,159.306 M120.83,53.414c2.917,2.917,2.917,7.643,0,10.56L97.679,87.127l23.152,23.153
	c2.917,2.917,2.917,7.642,0,10.559c-1.459,1.459-3.369,2.188-5.28,2.188s-3.822-0.73-5.279-2.188L87.12,97.687l-23.151,23.152
	c-1.456,1.459-3.369,2.188-5.28,2.188s-3.822-0.73-5.28-2.188c-2.917-2.917-2.917-7.642,0-10.559l23.152-23.154L53.41,63.973
	c-2.917-2.917-2.917-7.642,0-10.559s7.642-2.917,10.559,0L87.12,76.568l23.151-23.154C113.183,50.497,117.913,50.497,120.83,53.414"
	/>
</svg>
