<?xml version="1.0" encoding="utf-8"?>
<!-- Generator: Adobe Illustrator 16.0.0, SVG Export Plug-In . SVG Version: 6.00 Build 0)  -->
<!DOCTYPE svg PUBLIC "-//W3C//DTD SVG 1.1//EN" "http://www.w3.org/Graphics/SVG/1.1/DTD/svg11.dtd">
<svg version="1.1" id="Layer_1" xmlns="http://www.w3.org/2000/svg" xmlns:xlink="http://www.w3.org/1999/xlink" x="0px" y="0px"
	 width="165.333px" height="197.661px" viewBox="0 0 165.333 197.661" enable-background="new 0 0 165.333 197.661"
	 xml:space="preserve">
<path fill="#010101" d="M141.149,11.04h-28.203c-4.341-6.264-11.505-10.109-19.357-10.109H71.646
	c-7.852,0-15.015,3.845-19.357,10.109H24.086c-12.905,0-23.405,10.5-23.405,23.408v9.572c0,5.274,4.291,9.565,9.564,9.565h6.805
	l6.164,124.641c0.621,10.443,9.313,18.622,19.789,18.622h79.228c10.478,0,19.17-8.191,19.794-18.671l6.159-124.593h6.806
	c5.272,0,9.563-4.29,9.563-9.564v-9.572C164.553,21.54,154.053,11.04,141.149,11.04z M70.408,152.167
	c0,4.89-3.978,8.868-8.868,8.868c-4.891,0-8.869-3.979-8.869-8.868V72.875c0-4.889,3.979-8.869,8.869-8.869
	c4.89,0,8.868,3.979,8.868,8.869V152.167z M112.564,152.167c0,4.89-3.979,8.868-8.871,8.868c-4.888,0-8.863-3.979-8.863-8.868
	V72.875c0-4.889,3.976-8.869,8.863-8.869c4.893,0,8.871,3.979,8.871,8.869V152.167z M150.094,39.125H15.141v-4.678
	c0-4.935,4.013-8.949,8.945-8.949h32.451c2.928,0,5.565-1.763,6.682-4.469c1.416-3.426,4.723-5.64,8.428-5.64H93.59
	c3.704,0,7.011,2.213,8.425,5.639c1.114,2.706,3.756,4.47,6.681,4.47h32.453c4.932,0,8.945,4.015,8.945,8.949V39.125L150.094,39.125
	z"/>
</svg>
