<?xml version="1.0" encoding="utf-8"?>
<!-- Generator: Adobe Illustrator 16.0.0, SVG Export Plug-In . SVG Version: 6.00 Build 0)  -->
<!DOCTYPE svg PUBLIC "-//W3C//DTD SVG 1.1//EN" "http://www.w3.org/Graphics/SVG/1.1/DTD/svg11.dtd">
<svg version="1.1" id="Layer_1" xmlns="http://www.w3.org/2000/svg" xmlns:xlink="http://www.w3.org/1999/xlink" x="0px" y="0px"
	 width="25px" height="95px" viewBox="0 0 25 95" enable-background="new 0 0 25 95" xml:space="preserve">
<path d="M25,23c0,1.105-0.896,2-2,2H2c-1.104,0-2-0.895-2-2V2c0-1.105,0.896-2,2-2h21c1.104,0,2,0.895,2,2V23 M25,58V37
	c0-1.105-0.896-2-2-2H2c-1.104,0-2,0.895-2,2v21c0,1.105,0.896,2,2,2h21C24.104,60,25,59.105,25,58 M25,93V72c0-1.105-0.896-2-2-2H2
	c-1.104,0-2,0.895-2,2v21c0,1.105,0.896,2,2,2h21C24.104,95,25,94.105,25,93"/>
</svg>
