<?xml version="1.0" encoding="utf-8"?>
<!-- Generator: Adobe Illustrator 16.0.0, SVG Export Plug-In . SVG Version: 6.00 Build 0)  -->
<!DOCTYPE svg PUBLIC "-//W3C//DTD SVG 1.1//EN" "http://www.w3.org/Graphics/SVG/1.1/DTD/svg11.dtd">
<svg version="1.1" id="Layer_1" xmlns="http://www.w3.org/2000/svg" xmlns:xlink="http://www.w3.org/1999/xlink" x="0px" y="0px"
	 width="483.3px" height="367.8px" viewBox="0 0 483.3 367.8" enable-background="new 0 0 483.3 367.8" xml:space="preserve">
<path d="M424.3,0H59.1C26.5,0,0,26.5,0,59.1V308.7c0,32.6,26.5,59.1,59.1,59.1h365.1c32.6,0,59.1-26.5,59.1-59.1V59.2
	C483.4,26.6,456.9,0,424.3,0 M456.4,308.7c0,17.699-14.4,32.1-32.101,32.1H59.1c-17.7,0-32.1-14.4-32.1-32.1V59.2
	c0-17.7,14.4-32.1,32.1-32.1h365.1c17.7,0,32.1,14.4,32.1,32.1v249.5H456.4z M423.5,293.5c5.4,5.1,5.6,13.7,0.5,19.1
	c-2.7,2.8-6.2,4.2-9.8,4.2c-3.3,0-6.7-1.2-9.3-3.7l-120.2-114.2L251,229.1c-2.5,2.3-5.8,3.5-9,3.5s-6.4-1.1-9-3.399l-32.8-29.301
	L79.3,313c-2.6,2.399-5.9,3.6-9.2,3.6c-3.6,0-7.2-1.5-9.9-4.3c-5.1-5.5-4.8-14,0.6-19.1l119.1-111.5L60.3,74.8
	c-5.6-5-6.1-13.5-1.1-19.1s13.5-6.1,19.1-1.1l129.4,115.8c0.8,0.6,1.5,1.2,2.2,1.9c0,0.1,0.1,0.2,0.2,0.3l31.8,28.4l163-146.3
	c5.6-5,14.1-4.5,19.1,1c5,5.6,4.5,14.1-1,19.1l-118.2,106L423.5,293.5z"/>
</svg>
