<?xml version="1.0" encoding="utf-8"?>
<!-- Generator: Adobe Illustrator 16.0.0, SVG Export Plug-In . SVG Version: 6.00 Build 0)  -->
<!DOCTYPE svg PUBLIC "-//W3C//DTD SVG 1.1//EN" "http://www.w3.org/Graphics/SVG/1.1/DTD/svg11.dtd">
<svg version="1.1" id="Layer_1" xmlns="http://www.w3.org/2000/svg" xmlns:xlink="http://www.w3.org/1999/xlink" x="0px" y="0px"
	 width="512px" height="512px" viewBox="0 0 512 512" enable-background="new 0 0 512 512" xml:space="preserve">
<path d="M256,179.2c-42.415,0-76.8,34.385-76.8,76.8s34.385,76.8,76.8,76.8s76.8-34.385,76.8-76.8S298.415,179.2,256,179.2
	 M256,290.133c-18.851,0-34.133-15.282-34.133-34.133c0-18.851,15.282-34.133,34.133-34.133c18.851,0,34.133,15.282,34.133,34.133
	C290.133,274.851,274.851,290.133,256,290.133 M256,0C114.615,0,0,114.615,0,256s114.615,256,256,256s256-114.615,256-256
	S397.385,0,256,0 M256,375.467c-78.421,0-148.565-38.484-182.869-100.437c-6.481-11.859-6.481-26.2,0-38.059
	C107.435,175.019,177.579,136.533,256,136.533s148.565,38.485,182.869,100.437c6.48,11.859,6.48,26.2,0,38.059
	C404.565,336.981,334.421,375.467,256,375.467 M256,179.2c-42.415,0-76.8,34.385-76.8,76.8s34.385,76.8,76.8,76.8
	s76.8-34.385,76.8-76.8S298.415,179.2,256,179.2 M256,290.133c-18.851,0-34.133-15.282-34.133-34.133
	c0-18.851,15.282-34.133,34.133-34.133c18.851,0,34.133,15.282,34.133,34.133C290.133,274.851,274.851,290.133,256,290.133
	 M256,179.2c-42.415,0-76.8,34.385-76.8,76.8s34.385,76.8,76.8,76.8s76.8-34.385,76.8-76.8S298.415,179.2,256,179.2 M256,290.133
	c-18.851,0-34.133-15.282-34.133-34.133c0-18.851,15.282-34.133,34.133-34.133c18.851,0,34.133,15.282,34.133,34.133
	C290.133,274.851,274.851,290.133,256,290.133"/>
</svg>
