<?xml version="1.0" encoding="utf-8"?>
<!-- Generator: Adobe Illustrator 16.0.0, SVG Export Plug-In . SVG Version: 6.00 Build 0)  -->
<!DOCTYPE svg PUBLIC "-//W3C//DTD SVG 1.1//EN" "http://www.w3.org/Graphics/SVG/1.1/DTD/svg11.dtd">
<svg version="1.1" id="Layer_1" xmlns="http://www.w3.org/2000/svg" xmlns:xlink="http://www.w3.org/1999/xlink" x="0px" y="0px"
	 width="189.5px" height="195.992px" viewBox="0 0 189.5 195.992" enable-background="new 0 0 189.5 195.992" xml:space="preserve">
<path fill="#010101" d="M185.476,177.537L139.3,129.511c11.874-14.113,18.379-31.87,18.379-50.355
	c0-43.192-35.143-78.332-78.333-78.332c-43.189,0-78.33,35.14-78.33,78.332c0,43.19,35.141,78.33,78.33,78.33
	c16.217,0,31.668-4.89,44.877-14.175l46.525,48.39c1.946,2.02,4.56,3.131,7.362,3.131c2.652,0,5.17-1.01,7.082-2.852
	C189.251,188.075,189.381,181.598,185.476,177.537z M79.345,21.258c31.926,0,57.898,25.971,57.898,57.897
	c0,31.923-25.972,57.896-57.898,57.896c-31.924,0-57.895-25.973-57.895-57.896C21.45,47.229,47.421,21.258,79.345,21.258z"/>
</svg>
