<?xml version="1.0" encoding="utf-8"?>
<!-- Generator: Adobe Illustrator 16.0.0, SVG Export Plug-In . SVG Version: 6.00 Build 0)  -->
<!DOCTYPE svg PUBLIC "-//W3C//DTD SVG 1.1//EN" "http://www.w3.org/Graphics/SVG/1.1/DTD/svg11.dtd">
<svg version="1.1" id="Capa_1" xmlns="http://www.w3.org/2000/svg" xmlns:xlink="http://www.w3.org/1999/xlink" x="0px" y="0px"
	 width="248.417px" height="185.25px" viewBox="390.75 419.75 248.417 185.25"
	 enable-background="new 390.75 419.75 248.417 185.25" xml:space="preserve">
<path fill="#030104" d="M509.275,540.37l-35.394-44.059l45.42,33.407c5.53,0,10.024,4.483,10.024,10.008
	c0,5.536-4.494,10.052-10.024,10.052C513.973,549.777,509.604,545.615,509.275,540.37z M464.942,603.134h100.117v-23.759H464.942
	V603.134z M601.795,456.82c-23.185-23.184-54.009-35.952-86.795-35.952c-32.787,0-63.611,12.768-86.795,35.952
	c-23.184,23.184-35.951,54.008-35.951,86.795c0,21.17,5.333,41.515,15.347,59.519h22.942l16.78-9.688l-7.41-12.836l-21.576,12.458
	c-7.623-14.841-11.929-31.653-11.929-49.452c0-3.15,0.144-6.268,0.407-9.351l25.727,4.536l2.574-14.597l-26.029-4.589
	c4.651-20.537,15.138-38.881,29.62-53.196l17.636,21.018l11.354-9.526l-17.77-21.177c16.294-12.235,36.129-19.996,57.665-21.453
	v28.11h14.82v-28.11c21.536,1.459,41.37,9.218,57.665,21.454l-17.771,21.176l11.354,9.526l17.636-21.019
	c14.481,14.315,24.969,32.66,29.619,53.195l-26.028,4.591l2.574,14.595l25.725-4.536c0.265,3.083,0.407,6.2,0.407,9.35
	c0,17.801-4.305,34.613-11.928,49.453l-21.577-12.457l-7.409,12.836l16.778,9.688h22.943c10.014-18.004,15.347-38.349,15.347-59.52
	C637.747,510.828,624.978,480.003,601.795,456.82z"/>
</svg>
