<?xml version="1.0" encoding="utf-8"?>
<!-- Generator: Adobe Illustrator 16.0.0, SVG Export Plug-In . SVG Version: 6.00 Build 0)  -->
<!DOCTYPE svg PUBLIC "-//W3C//DTD SVG 1.1//EN" "http://www.w3.org/Graphics/SVG/1.1/DTD/svg11.dtd">
<svg version="1.1" id="Capa_1" xmlns="http://www.w3.org/2000/svg" xmlns:xlink="http://www.w3.org/1999/xlink" x="0px" y="0px"
	 width="695.5px" height="671px" viewBox="174.5 178.5 695.5 671" enable-background="new 174.5 178.5 695.5 671"
	 xml:space="preserve">
<path d="M759.239,371.026c22.386-22.398,22.386-58.652,0-81.028c-22.387-22.397-58.653-22.397-81.039,0
	c-22.386,22.398-22.386,58.653,0,81.028C700.586,393.424,736.853,393.424,759.239,371.026 M627.025,524.641h80.277
	c8.775,4.993,19.97,4.165,27.49-3.257l81.129-80.345c0.94-0.962,1.389-2.182,2.149-3.235c1.925-1.712,4.118-2.978,5.954-4.813
	c58.25-57.7,58.25-151.254,0-208.921c-58.25-57.7-152.675-57.7-210.924,0c-58.25,57.69-58.25,151.243,0,208.921
	c1.835,1.835,4.028,3.101,5.955,4.813c0.761,1.053,1.163,2.272,2.147,3.235l38.863,38.494h-34.475v0.84
	c-56.324,0.805-101.77,46.529-101.77,103.033c0,56.95,46.206,101.724,103.158,101.724h91.693c31.699,0,57.31,26.37,57.31,58.025
	c0,31.654-25.61,57.309-57.31,57.309H385.454l40.362-39.982c0.986-0.963,1.411-2.149,2.149-3.224c1.925-1.724,4.12-3,5.978-4.835
	c58.25-57.689,58.25-151.242,0-208.91c-58.25-57.7-152.698-57.7-210.948,0c-58.249,57.69-58.249,151.243,0,208.91
	c1.859,1.835,4.03,3.111,5.956,4.835c0.761,1.074,1.209,2.261,2.149,3.224l81.127,80.345c6.089,6.021,14.641,7.612,22.365,5.485
	h385.56v-0.134c56.324-0.807,101.725-46.542,101.725-103.022c0-56.122-44.862-101.567-100.65-102.91v-0.247l-97.066,0.425
	c-30.267-1.521-54.443-26.348-54.443-56.994C569.717,551.729,595.371,524.641,627.025,524.641 M645.785,401.079v-0.022
	c-0.044-0.09-0.134-0.134-0.225-0.202c-40.34-39.936-40.34-104.688,0-144.649c40.297-39.938,105.664-39.938,146.049,0
	c40.296,39.937,40.296,104.69,0,144.649c-0.269,0.246-0.581,0.393-0.851,0.639l0.09,0.088l-72.308,71.569L645.785,401.079
	 M328.481,792.629l-72.802-72.13v-0.021c-0.066-0.066-0.156-0.135-0.246-0.202c-40.317-39.937-40.317-104.7,0-144.66
	c40.318-39.916,105.688-39.916,146.05,0c40.317,39.937,40.317,104.701,0,144.66c-0.246,0.246-0.56,0.404-0.828,0.672l0.066,0.068
	L328.481,792.629 M288.499,610.919c-22.388,22.408-22.388,58.674,0,81.039c22.386,22.407,58.673,22.407,81.039,0
	c22.408-22.388,22.408-58.653,0-81.039C347.172,588.554,310.885,588.554,288.499,610.919"/>
</svg>
