<?xml version="1.0" encoding="utf-8"?>
<!-- Generator: Adobe Illustrator 16.0.0, SVG Export Plug-In . SVG Version: 6.00 Build 0)  -->
<!DOCTYPE svg PUBLIC "-//W3C//DTD SVG 1.1//EN" "http://www.w3.org/Graphics/SVG/1.1/DTD/svg11.dtd">
<svg version="1.1" id="Layer_1" xmlns="http://www.w3.org/2000/svg" xmlns:xlink="http://www.w3.org/1999/xlink" x="0px" y="0px"
	 width="512px" height="500.87px" viewBox="0 0 512 500.87" enable-background="new 0 0 512 500.87" xml:space="preserve">
<path d="M461.913,0c-26.812,0-48.766,21.176-50.026,47.681c-52.002,17.83-138.689,52.493-272.757,52.493h-22.26
	c-22.225,0-41.106,14.556-47.636,34.632C29.97,141.588,0,175.871,0,217.044s29.97,75.455,69.234,82.237
	c5.618,17.27,20.377,30.441,38.541,33.79l21.318,126.063c4.09,24.184,24.86,41.736,49.387,41.736
	c30.514,0,53.702-27.421,48.692-57.48l-17.664-105.983c93.9,9.15,145.539,29.512,202.379,49.001
	c1.261,26.505,23.215,47.681,50.026,47.681c27.618,0,50.087-22.469,50.087-50.087V50.087C512,22.469,489.531,0,461.913,0
	 M66.783,264.27c-19.435-6.891-33.391-25.459-33.391-47.226c0-21.766,13.956-40.336,33.391-47.226V264.27z M178.479,467.479
	c-8.175,0-15.098-5.852-16.462-13.912l-20.232-119.641c11.07,0.043,22.237,0.349,33.445,0.923l19.005,114.03
	C195.858,458.621,188.359,467.479,178.479,467.479 M197.009,302.809c-19.403-1.505-38.796-2.287-57.878-2.287H116.87
	c-9.206,0.001-16.696-7.489-16.696-16.695V150.261c0-9.206,7.49-16.696,16.696-16.696h22.261c19.083,0,38.476-0.784,57.878-2.287
	V302.809z M411.826,351.085c-44.604-15.292-93.983-34.459-181.426-44.979V127.981c86.614-10.42,135.465-29.223,181.426-44.98
	V351.085z M478.609,384c0,9.206-7.49,16.696-16.696,16.696s-16.696-7.49-16.696-16.696V50.087c0-9.206,7.49-16.696,16.696-16.696
	s16.696,7.49,16.696,16.696V384z"/>
</svg>
