<?xml version="1.0" encoding="utf-8"?>
<!-- Generator: Adobe Illustrator 16.0.0, SVG Export Plug-In . SVG Version: 6.00 Build 0)  -->
<!DOCTYPE svg PUBLIC "-//W3C//DTD SVG 1.1//EN" "http://www.w3.org/Graphics/SVG/1.1/DTD/svg11.dtd">
<svg version="1.1" id="Layer_1" xmlns="http://www.w3.org/2000/svg" xmlns:xlink="http://www.w3.org/1999/xlink" x="0px" y="0px"
	 width="368.787px" height="365.332px" viewBox="0 0 368.787 365.332" enable-background="new 0 0 368.787 365.332"
	 xml:space="preserve">
<path d="M184.395,193.563c-45.667,0-82.686-43.332-82.687-96.781C101.708,22.659,138.726,0,184.395,0
	c45.666,0,82.687,22.659,82.687,96.781C267.081,150.231,230.059,193.563,184.395,193.563 M366.983,336.012l-41.716-93.975
	c-1.909-4.3-5.261-7.867-9.433-10.039l-64.741-33.702c-1.428-0.74-3.157-0.597-4.44,0.374
	c-18.311,13.851-39.841,21.171-62.259,21.171c-22.422,0-43.95-7.32-62.261-21.171c-1.287-0.971-3.016-1.114-4.444-0.374
	l-64.737,33.702c-4.174,2.172-7.522,5.737-9.432,10.039L1.804,336.012c-2.876,6.479-2.286,13.891,1.578,19.833
	c3.862,5.941,10.398,9.487,17.485,9.487h327.052c7.087,0,13.626-3.548,17.487-9.487
	C369.269,349.902,369.859,342.487,366.983,336.012"/>
</svg>
