<?xml version="1.0" encoding="utf-8"?>
<!-- Generator: Adobe Illustrator 16.0.0, SVG Export Plug-In . SVG Version: 6.00 Build 0)  -->
<!DOCTYPE svg PUBLIC "-//W3C//DTD SVG 1.1//EN" "http://www.w3.org/Graphics/SVG/1.1/DTD/svg11.dtd">
<svg version="1.1" id="Capa_1" xmlns="http://www.w3.org/2000/svg" xmlns:xlink="http://www.w3.org/1999/xlink" x="0px" y="0px"
	 width="710px" height="678.998px" viewBox="166.499 174.502 710 678.998" enable-background="new 166.499 174.502 710 678.998"
	 xml:space="preserve">
<path d="M520.844,554.016c103.983,0,188.326-84.342,188.326-188.324c0-103.985-84.343-187.75-188.326-187.75
	c-103.983,0-188.327,84.342-188.327,187.75C332.517,469.097,416.859,554.016,520.844,554.016z M520.844,227.044
	c76.257,0,138.645,62.389,138.645,138.647c0,76.255-62.388,138.643-138.645,138.643c-76.256,0-138.645-62.39-138.645-138.646
	C382.199,289.434,444.588,227.044,520.844,227.044z M195.027,848.059h653.943c13.864,0,24.841-10.974,24.841-24.84
	c0-129.981-105.718-236.274-236.274-236.274H406.46c-129.979,0-236.273,105.719-236.273,236.274
	C170.187,837.085,181.162,848.059,195.027,848.059z M406.46,636.625h231.077c94.742,0,172.729,70.48,184.86,161.753H221.601
	C233.732,707.679,311.722,636.625,406.46,636.625z"/>
</svg>
