<?xml version="1.0" encoding="utf-8"?>
<!-- Generator: Adobe Illustrator 16.0.0, SVG Export Plug-In . SVG Version: 6.00 Build 0)  -->
<!DOCTYPE svg PUBLIC "-//W3C//DTD SVG 1.1//EN" "http://www.w3.org/Graphics/SVG/1.1/DTD/svg11.dtd">
<svg version="1.1" id="Layer_1" xmlns="http://www.w3.org/2000/svg" xmlns:xlink="http://www.w3.org/1999/xlink" x="0px" y="0px"
	 width="60px" height="55.07px" viewBox="0 0 60 55.07" enable-background="new 0 0 60 55.07" xml:space="preserve">
<path d="M40.068,11L5.93,11.07C2.66,11.07,0,13.73,0,17v21.141c0,3.27,2.66,5.929,5.93,5.929H12v10c0,0.413,0.254,0.784,0.64,0.933
	c0.117,0.045,0.239,0.067,0.36,0.067c0.276,0,0.547-0.115,0.74-0.327l9.704-10.675L40.07,44c3.27,0,5.93-2.66,5.93-5.929V16.93
	C46,13.66,43.34,11,40.068,11 M10,21h13c0.553,0,1,0.448,1,1c0,0.552-0.447,1-1,1H10c-0.553,0-1-0.448-1-1C9,21.448,9.447,21,10,21
	 M36,35H10c-0.553,0-1-0.447-1-1c0-0.552,0.447-1,1-1h26c0.553,0,1,0.448,1,1C37,34.552,36.553,35,36,35 M36,29H10
	c-0.553,0-1-0.447-1-1s0.447-1,1-1h26c0.553,0,1,0.448,1,1S36.553,29,36,29 M54.072,0.07C57.34,0.07,60,2.73,60,6v21.142
	c0,3.269-2.66,5.929-5.93,5.929H53v10c0,0.413-0.254,0.784-0.64,0.933c-0.117,0.045-0.239,0.067-0.36,0.067
	c-0.276,0-0.547-0.115-0.74-0.327L48,40.158v-2.087V38V16.93C48,12.557,44.441,9,40.064,9L14,9.054V5.93C14,2.66,16.66,0,19.93,0
	L54.072,0.07"/>
</svg>
