<?xml version="1.0" encoding="utf-8"?>
<!-- Generator: Adobe Illustrator 16.0.0, SVG Export Plug-In . SVG Version: 6.00 Build 0)  -->
<!DOCTYPE svg PUBLIC "-//W3C//DTD SVG 1.1//EN" "http://www.w3.org/Graphics/SVG/1.1/DTD/svg11.dtd">
<svg version="1.1" id="Layer_1" xmlns="http://www.w3.org/2000/svg" xmlns:xlink="http://www.w3.org/1999/xlink" x="0px" y="0px"
	 width="633.55px" height="774.034px" viewBox="0 0 633.55 774.034" enable-background="new 0 0 633.55 774.034"
	 xml:space="preserve">
<path d="M590.872,87.621c23.603,0,42.679,19.157,42.678,42.759v600.896c0,23.603-19.155,42.759-42.759,42.759H361.555H132.32
	c-23.603,0-42.76-19.156-42.76-42.759v-20.612h182.354h229.318c36.938,0,67.007-30.068,67.007-67.007V87.621H590.872
	 M89.641,686.413H42.759C19.157,686.413,0,667.257,0,643.656V195.853h14.873c1.212,0.081,2.505,0.162,3.718,0.162h93.197h23.926
	c33.222,0,60.219-26.998,60.219-60.219V111.87V18.672c0-1.536-0.081-3.071-0.242-4.526V0h76.223H501.15
	c23.602,0,42.759,19.157,42.759,42.76v44.861v556.035c0,23.601-19.157,42.757-42.759,42.757H271.914H89.641z M280.563,541.081
	c11.155,0,20.288-9.054,20.288-20.208c0-11.155-9.053-20.208-20.207-20.208H131.107c-11.155,0-20.208,9.053-20.208,20.208
	c0,11.154,9.053,20.208,20.208,20.208H280.563 M430.101,437.942c11.153,0,20.207-9.055,20.207-20.208
	c0-11.155-9.054-20.208-20.207-20.208H131.107c-11.155,0-20.208,9.053-20.208,20.208c0,11.153,9.053,20.208,20.208,20.208H430.101
	 M131.107,288c-11.155,0-20.208,9.053-20.208,20.208c0,11.154,9.053,20.207,20.208,20.207h298.993
	c11.153,0,20.207-9.053,20.207-20.207c0-11.155-9.054-20.208-20.207-20.208H131.107 M18.591,171.766h117.124h0.323
	c19.561-0.162,35.404-16.004,35.565-35.565v-0.324V18.673c0-10.832-8.891-18.025-18.105-18.025c-4.446,0-8.891,1.616-12.609,5.334
	L5.82,141.05C-5.497,152.367,2.506,171.766,18.591,171.766"/>
</svg>
