<?xml version="1.0" encoding="utf-8"?>
<!-- Generator: Adobe Illustrator 16.0.0, SVG Export Plug-In . SVG Version: 6.00 Build 0)  -->
<!DOCTYPE svg PUBLIC "-//W3C//DTD SVG 1.1//EN" "http://www.w3.org/Graphics/SVG/1.1/DTD/svg11.dtd">
<svg version="1.1" id="Layer_1" xmlns="http://www.w3.org/2000/svg" xmlns:xlink="http://www.w3.org/1999/xlink" x="0px" y="0px"
	 width="240.163px" height="225.032px" viewBox="0 0 240.163 225.032" enable-background="new 0 0 240.163 225.032"
	 xml:space="preserve">
<path d="M39.818,64.929c-3.866,0-7-3.134-7-7c0-3.866,3.134-7,7-7h97.652c3.866,0,7,3.134,7,7c0,3.866-3.134,7-7,7H39.818
	 M39.818,88.978h97.652c3.866,0,7-3.134,7-7c0-3.866-3.134-7-7-7H39.818c-3.866,0-7,3.134-7,7
	C32.818,85.844,35.952,88.978,39.818,88.978 M91.477,171.173H39.818c-3.866,0-7,3.135-7,7c0,3.866,3.134,7,7,7h51.658
	c3.866,0,7-3.134,7-7C98.476,174.308,95.343,171.173,91.477,171.173 M239.164,22.95L170.75,136.971v81.062c0,3.866-3.134,7-7,7H7
	c-3.866,0-7-3.134-7-7V20.792c0-3.866,3.134-7,7-7h156.75c3.866,0,7,3.134,7,7v42.32l35.829-59.714
	c0.955-1.591,2.504-2.739,4.305-3.189c1.801-0.451,3.707-0.166,5.299,0.789l20.58,12.348
	C240.078,15.336,241.153,19.635,239.164,22.95z M213.513,38.49l-8.574-5.145l-67.152,111.917l-3.042,14.787l11.617-9.643
	L213.513,38.49z M223.558,21.749l-8.574-5.145l-2.843,4.736l8.575,5.145L223.558,21.749z M156.75,211.032v-51.135
	c-0.173,0.177-0.339,0.361-0.53,0.521l-27.88,23.143c-1.287,1.068-2.875,1.613-4.472,1.613c-1.241,0-2.487-0.33-3.602-0.998
	c-2.549-1.529-3.854-4.502-3.254-7.412l3.216-15.64H39.818c-3.866,0-7-3.134-7-7s3.134-7,7-7h83.292l1.202-5.851
	c0.159-0.773,0.448-1.515,0.854-2.191l1.204-2.006H39.818c-3.866,0-7-3.134-7-7s3.134-7,7-7h94.952l6.856-11.426
	c-1.163,0.861-2.597,1.377-4.156,1.377H39.818c-3.866,0-7-3.134-7-7c0-3.866,3.134-7,7-7h97.652c3.866,0,7,3.134,7,7
	c0,0.348-0.034,0.687-0.083,1.022l12.363-20.604V27.792H14v183.24H156.75z"/>
</svg>
