<?xml version="1.0" encoding="utf-8"?>
<!-- Generator: Adobe Illustrator 16.0.0, SVG Export Plug-In . SVG Version: 6.00 Build 0)  -->
<!DOCTYPE svg PUBLIC "-//W3C//DTD SVG 1.1//EN" "http://www.w3.org/Graphics/SVG/1.1/DTD/svg11.dtd">
<svg version="1.1" id="Layer_1" xmlns="http://www.w3.org/2000/svg" xmlns:xlink="http://www.w3.org/1999/xlink" x="0px" y="0px"
	 width="512.001px" height="389.566px" viewBox="0 0 512.001 389.566" enable-background="new 0 0 512.001 389.566"
	 xml:space="preserve">
<path d="M495.304,0H16.696C7.475,0,0,7.476,0,16.696V372.87c0,9.221,7.475,16.696,16.696,16.696h478.609
	c9.221,0,16.696-7.475,16.696-16.696V16.696C512,7.476,504.525,0,495.304,0 M478.609,177.151L397.58,91.255
	c-6.511-6.903-17.655-7.034-24.29,0L216.755,257.201l-77.956-82.646c-6.489-6.879-17.645-7.041-24.29,0l-81.117,85.994V33.392
	h445.217V177.151z M216.754,72.595c27.72,0,50.274,22.554,50.274,50.274c0,27.721-22.553,50.275-50.274,50.275
	c-27.721,0-50.275-22.554-50.275-50.275C166.479,95.149,189.033,72.595,216.754,72.595"/>
</svg>
