<?xml version="1.0" encoding="utf-8"?>
<!-- Generator: Adobe Illustrator 16.0.0, SVG Export Plug-In . SVG Version: 6.00 Build 0)  -->
<!DOCTYPE svg PUBLIC "-//W3C//DTD SVG 1.1//EN" "http://www.w3.org/Graphics/SVG/1.1/DTD/svg11.dtd">
<svg version="1.1" id="Layer_1" xmlns="http://www.w3.org/2000/svg" xmlns:xlink="http://www.w3.org/1999/xlink" x="0px" y="0px"
	 width="168.225px" height="176.819px" viewBox="0 0 168.225 176.819" enable-background="new 0 0 168.225 176.819"
	 xml:space="preserve">
<path d="M162.21,41.915c-8.854-15.79-24.158-20.566-37.194-21.412c-1.756-3.24-3.993-6.287-6.729-9.023
	C110.883,4.076,101.04,0,90.57,0S70.257,4.076,62.855,11.479C52.039,22.296,48.557,38.021,53.61,52.25L2.133,103.726
	c-0.693,0.693-1.125,1.605-1.219,2.58l-0.894,9.119c-0.124,1.26,0.323,2.51,1.219,3.405l11.22,11.22
	c0.699,0.699,1.621,1.131,2.605,1.222l4.74,0.436c0.129,0.012,0.259,0.018,0.387,0.018c1.117,0,2.195-0.441,2.993-1.238l8.64-8.641
	c0.794-0.794,1.239-1.871,1.239-2.993v-0.869h0.869c1.122,0,2.199-0.445,2.993-1.239l1.7-1.701c0.794-0.794,1.24-1.87,1.24-2.992
	v-6.625h6.625c1.123,0,2.199-0.446,2.993-1.239l5.974-5.974c0.794-0.794,1.239-1.87,1.239-2.993V94.7h0.521
	c1.122,0,2.199-0.446,2.993-1.239l5.538-5.538c0.794-0.794,1.239-1.871,1.239-2.993v-1.742h1.742c1.122,0,2.199-0.446,2.993-1.239
	l5.797-5.797c4.188,1.481,8.57,2.23,13.066,2.23c10.466,0,20.303-4.074,27.702-11.473c10.135-10.135,13.54-24.481,10.234-37.455
	c9.82,1.395,20.203,5.711,26.307,16.598c10.781,19.227,1.411,36.247-3.909,43.519l-27.594-5.99
	c-1.403-0.306-2.872,0.124-3.891,1.143l-48.624,48.625c-0.794,0.794-1.239,1.871-1.239,2.993s0.446,2.199,1.239,2.993l36.247,36.246
	c0.827,0.826,1.91,1.24,2.993,1.24c1.084,0,2.166-0.414,2.992-1.24l48.625-48.623c1.019-1.019,1.448-2.484,1.144-3.891
	l-5.941-27.367c2.231-2.92,5.306-7.541,7.695-13.41C170.145,68.576,169.331,54.614,162.21,41.915 M102.608,38.049
	c-2.909,0-5.644-1.132-7.701-3.19c-4.247-4.247-4.247-11.157,0-15.403c2.058-2.058,4.793-3.19,7.702-3.19s5.644,1.133,7.701,3.19
	c0.439,0.439,0.827,0.915,1.18,1.412c-5.633,0.636-9.488,1.656-9.999,1.796c-2.254,0.617-3.581,2.944-2.964,5.199
	c0.617,2.254,2.945,3.581,5.2,2.964c0.118-0.033,3.954-1.048,9.575-1.595c-0.407,2.119-1.434,4.069-2.992,5.628
	C108.253,36.917,105.518,38.049,102.608,38.049"/>
</svg>
