<?xml version="1.0" encoding="utf-8"?>
<!-- Generator: Adobe Illustrator 16.0.0, SVG Export Plug-In . SVG Version: 6.00 Build 0)  -->
<!DOCTYPE svg PUBLIC "-//W3C//DTD SVG 1.1//EN" "http://www.w3.org/Graphics/SVG/1.1/DTD/svg11.dtd">
<svg version="1.1" id="Layer_1" xmlns="http://www.w3.org/2000/svg" xmlns:xlink="http://www.w3.org/1999/xlink" x="0px" y="0px"
	 width="352.504px" height="424.981px" viewBox="0 0 352.504 424.981" enable-background="new 0 0 352.504 424.981"
	 xml:space="preserve">
<path d="M205.157,282.304c1.479,1.621,2.39,3.587,2.831,5.729c0.813,3.953,0.415,8.316-1.58,11.867
	c-4.182,7.435-13.323,10.324-21.286,11.225v-38.017c4.905,1.29,9.847,2.719,14.364,5.075
	C201.562,279.266,203.569,280.566,205.157,282.304 M206.366,299.973c0.016-0.027,0.024-0.044,0.042-0.073
	C206.394,299.924,206.38,299.948,206.366,299.973 M147.771,221.532c-1.369,1.999-2.228,4.271-2.465,6.685
	c-0.237,2.419-0.104,5.109,0.815,7.387c0.875,2.17,2.708,3.772,4.6,5.063c2.123,1.443,4.458,2.571,6.836,3.527
	c1.995,0.803,4.239,1.571,6.658,2.313v-34.4C158.104,213.41,151.427,216.194,147.771,221.532 M206.565,299.619
	c-0.05,0.09-0.104,0.183-0.156,0.28C206.471,299.785,206.52,299.701,206.565,299.619 M206.766,299.263
	C206.781,299.237,206.778,299.239,206.766,299.263 M198.515,92.469c121.862,50.17,299.829,356.906-55.582,330.957
	c-256.861-18.753-109.625-277.207-4.873-328.691C102.949,71.981,80.507,19.751,93.578,5.389
	c16.076-17.664,44.716,14.026,71.012,10.851c18.54-2.748,56.898-18.345,74.562-14.788C252.445,4.128,230.844,65.311,198.515,92.469
	 M229.038,296.298c0.825-7.598-0.422-15.595-4.218-22.282c0.732,1.283,1.429,2.503-0.029-0.057
	c-1.485-2.606-0.766-1.342-0.025-0.043c-4.77-8.332-13.051-13.616-21.79-17.063c-5.782-2.28-11.822-3.855-17.856-5.301v-39.582
	c5.078,0.901,10.159,2.513,14.35,5.606c1.935,1.428,3.63,3.159,4.938,5.18c0.673,1.039,1.257,2.139,1.708,3.292
	c0.446,1.139,0.666,2.348,1.104,3.489c1.471,3.841,5.193,6.516,9.301,6.694c4.182,0.179,8.155-2.232,9.928-6.021
	c0.864-1.85,1.173-3.938,0.87-5.958c-0.188-1.267-0.587-2.516-0.982-3.729c-0.425-1.301-0.916-2.577-1.478-3.824
	c-2.009-4.47-4.865-8.568-8.355-12.009c-7.367-7.263-17.22-11.423-27.294-13.246c-1.356-0.246-2.719-0.452-4.086-0.624v-0.847
	v-10.647c0-4.042-2.414-7.808-6.086-9.499c-3.721-1.714-8.223-1.044-11.29,1.667c-2.23,1.972-3.531,4.854-3.531,7.832v10.647v0.91
	c-10.259,1.452-20.487,5.405-28.187,12.492c-3.601,3.315-6.538,7.314-8.578,11.768c-2.178,4.757-3.17,9.932-3.131,15.153
	c0.038,5.142,0.973,10.318,3.23,14.966c2.139,4.403,5.405,8.123,9.254,11.117c7.92,6.158,17.82,9.364,27.411,11.848v41.362
	c-4.905-1.376-9.61-3.689-13.304-7.248c-1.792-1.728-3.348-3.717-4.59-5.875c-0.629-1.096-1.164-2.247-1.607-3.432
	c-0.447-1.191-0.717-2.427-1.115-3.632c-1.292-3.912-4.889-6.76-8.993-7.124c-4.17-0.372-8.254,1.867-10.192,5.574
	c-0.943,1.802-1.344,3.866-1.137,5.889c0.123,1.206,0.479,2.383,0.824,3.539c0.381,1.278,0.816,2.542,1.304,3.783
	c1.868,4.749,4.569,9.148,7.882,13.025c6.651,7.777,15.756,13.035,25.572,15.731c1.767,0.485,3.555,0.893,5.356,1.234v12.168
	c0,4.042,2.413,7.809,6.086,9.499c3.72,1.714,8.224,1.045,11.289-1.667c2.229-1.972,3.531-4.854,3.531-7.832v-11.133
	c10.503-0.852,21.073-3.89,29.502-10.421C222.604,315.486,227.944,306.375,229.038,296.298 M206.255,300.169
	c-0.062,0.108-0.114,0.205-0.156,0.277C206.135,300.384,206.188,300.29,206.255,300.169"/>
</svg>
