<?xml version="1.0" encoding="utf-8"?>
<!-- Generator: Adobe Illustrator 16.0.0, SVG Export Plug-In . SVG Version: 6.00 Build 0)  -->
<!DOCTYPE svg PUBLIC "-//W3C//DTD SVG 1.1//EN" "http://www.w3.org/Graphics/SVG/1.1/DTD/svg11.dtd">
<svg version="1.1" id="Layer_1" xmlns="http://www.w3.org/2000/svg" xmlns:xlink="http://www.w3.org/1999/xlink" x="0px" y="0px"
	 width="48.665px" height="47.851px" viewBox="0 0 48.665 47.851" enable-background="new 0 0 48.665 47.851" xml:space="preserve">
<path d="M40.332,31.185c4.603,0,8.333,3.73,8.332,8.333c0,4.604-3.73,8.333-8.333,8.333c-4.604,0-8.333-3.729-8.333-8.333
	c0-0.425,0.042-0.839,0.104-1.245l-17.735-8.685c-1.518,1.596-3.656,2.596-6.033,2.596C3.73,32.184,0,28.454,0,23.851
	c0-4.602,3.73-8.333,8.334-8.333c2.388,0,4.535,1.01,6.054,2.619l17.708-8.589c-0.058-0.398-0.098-0.801-0.098-1.215
	C31.999,3.73,35.729,0,40.332,0c4.603,0,8.333,3.73,8.333,8.333c0,4.602-3.73,8.333-8.333,8.333c-2.388,0-4.535-1.01-6.054-2.619
	l-17.711,8.589c0.058,0.397,0.098,0.801,0.098,1.215c0,0.426-0.042,0.84-0.103,1.246l17.737,8.686
	C35.817,32.185,37.955,31.185,40.332,31.185"/>
</svg>
