<?xml version="1.0" encoding="utf-8"?>
<!-- Generator: Adobe Illustrator 16.0.0, SVG Export Plug-In . SVG Version: 6.00 Build 0)  -->
<!DOCTYPE svg PUBLIC "-//W3C//DTD SVG 1.1//EN" "http://www.w3.org/Graphics/SVG/1.1/DTD/svg11.dtd">
<svg version="1.1" id="Layer_1" xmlns="http://www.w3.org/2000/svg" xmlns:xlink="http://www.w3.org/1999/xlink" x="0px" y="0px"
	 width="481.294px" height="489.543px" viewBox="0 0 481.294 489.543" enable-background="new 0 0 481.294 489.543"
	 xml:space="preserve">
<path d="M265.9,0c22.6,0,76.3,15.1,44,112.8c-32.2,97.7,0,82.7,0,82.7c7.399-1.8,14.3-3.2,20.8-4.3c0,0,93.1-20.9,127.399,10.5
	c27.5,25.1,6.2,58.3,6.2,58.3s38.7,34.5-0.7,75.601c0,0,25.2,41.6-19.1,74.899c0,0,20.6,57.301-61.6,74.801
	c-24.2,5.199-54.601,5-83.301,2.699c-71.7,1.5-143.2-7.8-143.2-7.8l-46.2-200.899c14.1-8.5,20.7-18.2,23.8-24.5
	c0.7-2,1.5-4.2,2.4-6.5c3.9-9.4,10.1-20.9,20-31.3c46.2-35.5,94.5-168.7,94.5-168.7S243.3,0,265.9,0 M123.2,465.7l-35-166.3
	c-2-9.5-11.6-17.3-21.3-17.3H0.1L0,482.9h109.1C118.9,483,125.2,475.2,123.2,465.7"/>
</svg>
