<?xml version="1.0" encoding="utf-8"?>
<!-- Generator: Adobe Illustrator 16.0.0, SVG Export Plug-In . SVG Version: 6.00 Build 0)  -->
<!DOCTYPE svg PUBLIC "-//W3C//DTD SVG 1.1//EN" "http://www.w3.org/Graphics/SVG/1.1/DTD/svg11.dtd">
<svg version="1.1" id="Layer_1" xmlns="http://www.w3.org/2000/svg" xmlns:xlink="http://www.w3.org/1999/xlink" x="0px" y="0px"
	 width="96.375px" height="85.459px" viewBox="0 0 96.375 85.459" enable-background="new 0 0 96.375 85.459" xml:space="preserve">
<path d="M58.089,15.045c4.391,2.894,7.47,7.79,8.034,13.472c1.786,0.88,3.775,1.386,5.884,1.386c7.693,0,13.928-6.553,13.928-14.635
	c0-8.085-6.234-14.638-13.928-14.638C64.385,0.63,58.204,7.067,58.089,15.045L58.089,15.045z M48.962,45.015
	c7.694,0,13.931-6.553,13.931-14.637c0-8.083-6.236-14.636-13.931-14.636c-7.691,0-13.931,6.555-13.931,14.637
	C35.031,38.463,41.271,45.015,48.962,45.015L48.962,45.015z M54.871,46.014H43.052c-9.833,0-17.834,8.408-17.834,18.742v15.189
	l0.036,0.239l0.995,0.328c9.387,3.079,17.54,4.107,24.251,4.107c13.105,0,20.705-3.927,21.175-4.178l0.93-0.495h0.1V64.756
	C72.706,54.422,64.704,46.014,54.871,46.014L54.871,46.014z M77.917,30.903h-11.73c-0.125,4.931-2.128,9.371-5.292,12.564
	c8.738,2.731,15.133,11.251,15.133,21.311v4.68c11.58-0.444,18.253-3.894,18.694-4.125l0.93-0.496h0.099V49.643
	C95.75,39.309,87.751,30.903,77.917,30.903L77.917,30.903z M24.521,29.905c2.726,0,5.262-0.836,7.409-2.26
	c0.682-4.68,3.07-8.768,6.48-11.554c0.014-0.274,0.04-0.545,0.04-0.822c0-8.085-6.238-14.637-13.929-14.637
	c-7.694,0-13.929,6.552-13.929,14.637C10.592,23.351,16.827,29.905,24.521,29.905L24.521,29.905z M37.031,43.467
	c-3.153-3.177-5.149-7.593-5.294-12.495c-0.437-0.034-0.866-0.07-1.31-0.07H18.609c-9.833,0-17.834,8.406-17.834,18.74v15.192
	l0.036,0.234l0.997,0.329c7.529,2.472,14.248,3.61,20.083,3.968v-4.588C21.894,54.719,28.287,46.2,37.031,43.467L37.031,43.467z"/>
</svg>
