<?xml version="1.0" encoding="utf-8"?>
<!-- Generator: Adobe Illustrator 16.0.0, SVG Export Plug-In . SVG Version: 6.00 Build 0)  -->
<!DOCTYPE svg PUBLIC "-//W3C//DTD SVG 1.1//EN" "http://www.w3.org/Graphics/SVG/1.1/DTD/svg11.dtd">
<svg version="1.1" id="Layer_1" xmlns="http://www.w3.org/2000/svg" xmlns:xlink="http://www.w3.org/1999/xlink" x="0px" y="0px"
	 width="80.13px" height="67.433px" viewBox="0 0 80.13 67.433" enable-background="new 0 0 80.13 67.433" xml:space="preserve">
<path d="M48.355,11.574c3.704,2.323,6.303,6.254,6.775,10.817c1.511,0.706,3.188,1.112,4.966,1.112
	c6.491,0,11.752-5.261,11.752-11.751C71.849,5.261,66.588,0,60.097,0C53.668,0.002,48.453,5.169,48.355,11.574 M40.656,35.636
	c6.491,0,11.752-5.262,11.752-11.752c0-6.49-5.262-11.751-11.752-11.751s-11.754,5.262-11.754,11.752
	C28.902,30.375,34.166,35.636,40.656,35.636 M45.641,36.437h-9.972c-8.297,0-15.047,6.751-15.047,15.048V63.68l0.031,0.191
	l0.84,0.263c7.918,2.474,14.797,3.299,20.459,3.299c11.059,0,17.469-3.153,17.864-3.354l0.784-0.397h0.084V51.485
	C60.688,43.188,53.938,36.437,45.641,36.437 M65.084,24.305h-9.895c-0.107,3.959-1.798,7.524-4.471,10.088
	c7.375,2.193,12.771,9.032,12.771,17.11v3.758c9.77-0.358,15.399-3.127,15.771-3.313l0.785-0.397h0.084V39.351
	C80.13,31.055,73.38,24.305,65.084,24.305 M20.035,23.505c2.299,0,4.438-0.671,6.25-1.814c0.576-3.757,2.59-7.04,5.467-9.276
	c0.012-0.22,0.033-0.438,0.033-0.66c0-6.491-5.262-11.752-11.75-11.752c-6.492,0-11.752,5.261-11.752,11.752
	C8.283,18.243,13.543,23.505,20.035,23.505 M30.589,34.393c-2.66-2.551-4.344-6.097-4.467-10.032
	c-0.367-0.027-0.73-0.056-1.104-0.056h-9.971C6.75,24.305,0,31.055,0,39.351v12.197l0.031,0.188l0.84,0.266
	c6.352,1.982,12.021,2.896,16.945,3.185v-3.683C17.818,43.425,23.212,36.588,30.589,34.393"/>
</svg>
